<?xml version="1.0" encoding="utf-8"?>
<!DOCTYPE svg PUBLIC "-//W3C//DTD SVG 1.1//EN" "http://www.w3.org/Graphics/SVG/1.1/DTD/svg11.dtd">
<svg version="1.1" id="Layer_1" xmlns="http://www.w3.org/2000/svg" xmlns:xlink="http://www.w3.org/1999/xlink" x="0px" y="0px"
	 width="620px" height="380px" viewBox="-4 212 620 380" enable-background="new 0 212 612 380"
	 xml:space="preserve">
<filter id="drop-shadow" y="-25%" height="150%">
	<feGaussianBlur in="SourceAlpha" stdDeviation="2.2"/>
	<feOffset dx="0" dy="6" result="offsetblur"/>
	<feFlood flood-color="#000000" flood-opacity="0.4"/>
	<feComposite in2="offsetblur" operator="in"/>
	<feMerge>
		<feMergeNode/>
		<feMergeNode in="SourceGraphic"/>
	</feMerge>
</filter>
<g filter="url(#drop-shadow)">
	<path fill="#77456D" d="M602.447,395.997c0,41.148-29.963,75.279-69.15,82.134v48.006h-76.011
		c-21.147,25.637-80.909,44.25-151.041,44.25c-69.969,0-129.895-18.613-151.039-44.25H79.193v-48.004
		c-39.188-6.695-69.15-40.987-69.15-82.136c0-41.146,29.963-75.276,69.15-82.13v-48.008h76.01
		c21.145-25.635,80.906-44.248,151.039-44.248c69.968,0,129.895,18.613,151.041,44.248h76.011v48.008
		C572.484,320.724,602.447,354.852,602.447,395.997z"/>
	<g>
		<path fill="#FFFFFF" d="M306,578.064c-68.416,0-129.73-17.634-154.633-44.25H71.031V484.42
			c-40.578-9.962-69.153-46.211-69.153-88.337c0-42.292,28.819-78.38,69.153-88.339v-49.397h80.336
			c24.903-26.778,86.217-44.415,154.633-44.415s129.73,17.637,154.633,44.25h80.336v49.397c40.576,9.958,69.15,46.208,69.15,88.339
			c0,42.29-28.819,78.375-69.15,88.336v49.395h-80.336C435.73,560.431,374.416,578.064,306,578.064z M86.707,518.055h71.927
			l2.367,2.94c20.001,24.33,79.521,41.313,145,41.313s124.995-17.064,144.999-41.313l2.368-2.94h71.926v-46.617l6.451-1.144
			c36.25-6.287,62.702-37.391,62.702-74.297c0-36.903-26.452-68.171-62.702-74.294l-6.451-1.143v-46.618h-71.926l-2.368-2.94
			c-20.004-24.327-79.521-41.31-144.999-41.31s-124.998,17.063-145,41.312l-2.367,2.94H86.707v46.618l-6.451,1.144
			c-36.25,6.284-62.702,37.39-62.702,74.291c0,36.82,26.452,68.174,62.702,74.297l6.451,1.144V518.055z"/>
		<path fill="#77456D" d="M306,580.025c-68.58,0-129.488-17.473-155.367-44.25H69.15V485.97C28.411,475.192,0,438.373,0,395.997
			c0-42.37,28.411-79.19,69.15-89.969v-49.803h81.482c25.879-26.778,86.787-44.25,155.367-44.25s129.485,17.472,155.367,44.25
			h81.482v49.803c40.739,10.779,69.15,47.6,69.15,89.969c0,42.292-28.411,79.195-69.15,89.973v49.803h-81.482
			C435.485,562.715,374.744,580.025,306,580.025z M72.989,531.772h79.357l0.573,0.57c24.494,26.043,86.053,43.68,153.245,43.68
			c67.031,0,128.751-17.637,153.245-43.68l0.573-0.57h79.356v-48.985l1.553-0.406c40.005-9.795,67.765-45.477,67.765-86.625
			s-27.841-76.581-67.765-86.626l-1.553-0.406v-48.988h-79.521l-0.573-0.57c-24.494-25.963-86.053-43.597-153.245-43.597
			c-67.028,0-128.751,17.634-153.245,43.677l-0.573,0.57H72.825v48.985l-1.552,0.409c-40.002,9.8-67.762,45.477-67.762,86.626
			c0,41.148,27.84,76.581,67.762,86.626l1.552,0.406v48.984h0.164V531.772z M306,564.35c-65.804,0-126.222-17.228-146.552-42.13
			l-1.797-2.126H84.745V473.07l-4.898-0.818c-37.229-6.448-64.254-38.369-64.254-76.255c0-37.88,27.025-69.965,64.254-76.252
			l4.898-0.818V271.9h72.906l1.797-2.123C179.861,244.875,239.951,227.65,306,227.65c65.804,0,126.223,17.225,146.552,42.13
			l1.797,2.123h72.906v47.026l4.898,0.818c37.229,6.448,64.255,38.373,64.255,76.252c0,37.802-27.025,69.969-64.255,76.255
			l-4.898,0.818v47.023h-72.906l-1.797,2.126C432.223,547.039,372.049,564.35,306,564.35z M88.665,516.097h70.947l2.94,3.511
			C182.148,543.531,241.339,560.35,306,560.35c64.824,0,123.853-16.654,143.447-40.742l2.94-3.511h70.947v-46.454l8.245-1.388
			c35.433-6.042,61.15-36.414,61.15-72.335c0-35.924-25.638-66.46-61.15-72.338l-8.245-1.388v-46.454h-70.947l-2.938-3.514
			c-19.598-23.918-78.79-40.737-143.45-40.737c-64.825,0-123.852,16.655-143.447,40.74l-2.94,3.514H88.665v46.453l-8.246,1.388
			c-35.435,6.04-61.152,36.412-61.152,72.336c0,35.921,25.634,66.458,61.15,72.335l8.245,1.388v46.454H88.665z"/>
	</g>
</g>
<g>
	<path fill="#472941" d="M294.08,510.789c1.388-0.815,2.94-1.959,3.919-3.347s1.797-2.94,2.123-4.328
		c0.979-2.94,1.143-6.287,0.57-9.225c-1.552,2.776-2.94,5.062-4.329,7.43c-1.552,2.37-2.938,3.759-5.06,4.899
		c-4.329,2.531-9.798,3.758-15.512,5.716C281.506,514.136,288.202,513.729,294.08,510.789z"/>
	<path fill="#472941" d="M225.5,497.483c0.406-1.797,1.958-3.102,4.081-3.758c1.961-0.818,4.329-0.818,6.696-0.57
		c0.406,0,0.573,0,0.979,0c2.123-0.164,3.755-2.126,3.51-4.329c-0.245-2.203-2.122-3.755-4.328-3.511h-0.164
		c-3.347,0.406-6.448,1.386-9.225,3.103c-2.776,1.713-5.469,4.898-5.063,8.815c0.409,3.919,3.349,6.042,6.042,7.266
		c2.776,1.144,5.717,1.389,8.41,0.982c-2.776-0.406-5.308-1.144-7.43-2.776C226.479,501.4,225.091,499.277,225.5,497.483z"/>
	<path fill="#472941" d="M314.001,507.523c1.143,1.388,2.775,2.531,3.919,3.346c5.878,3.103,12.329,3.35,18.043,0.982
		c-5.878-1.958-11.186-3.102-15.512-5.717c-2.122-1.144-3.511-2.528-5.062-4.898c-1.389-2.123-2.94-4.734-4.328-7.431
		c-0.57,2.94-0.406,6.042,0.572,9.225C312.287,504.586,313.021,506.138,314.001,507.523z"/>
	<path fill="#472941" d="M369.111,496.096c-3.102,0.57-6.042,1.958-8.654,3.755c-1.389,1.144-2.776,2.37-3.92,3.759
		c0.409-4.899-1.552-9.962-5.469-13.147c-2.367-1.958-6.287-2.94-9.225-1.958c-2.94,0.814-5.308,2.776-6.857,4.898
		c-1.549,2.123-2.531,4.735-2.531,7.267s1.388,5.469,3.756,6.287l0.408-0.573c-2.776-3.511-0.164-7.264,2.367-9.389
		c1.389-0.982,2.94-1.797,4.081-1.797c1.144,0,1.962,0.408,2.94,1.143c1.962,2.123,3.35,5.308,2.776,8.246
		c-0.164,3.102-2.367,6.286-5.308,8.653c-5.878,4.49-14.86,6.448-22.532,4.735c-7.84-1.553-13.309-9.634-14.861-18.043h-0.409
		h-0.489c-1.388,8.409-6.857,16.248-14.858,18.043c-7.675,1.797-16.658-0.164-22.536-4.735c-2.94-2.37-5.06-5.472-5.308-8.653
		c-0.406-2.938,0.979-6.043,2.776-8.246c0.815-0.817,1.552-1.143,2.94-1.143c1.143,0,2.776,0.814,4.081,1.797
		c2.531,2.125,5.062,5.878,2.367,9.389l0.406,0.573c2.367-0.818,3.755-3.756,3.755-6.287c0-2.776-0.979-5.061-2.532-7.267
		c-1.552-2.203-3.755-3.919-6.857-4.898c-3.102-0.982-6.857,0-9.225,1.958c-3.919,3.102-5.878,8.248-5.469,13.147
		c-1.144-1.389-2.532-2.776-3.92-3.759c-2.531-1.797-5.308-3.347-8.654-3.755c-3.102-0.573-6.448,0-8.982,1.552
		c5.878,1.141,10.207,3.347,14.288,6.448c4.083,3.102,8,6.86,12.574,10.777l0,0c1.144,1.143,2.531,2.37,3.919,3.346
		c4.081,2.776,8.816,4.084,13.308,4.49c4.738,0.406,9.228,0.406,13.881-1.144c4.49-1.552,8.246-4.898,10.613-8.815
		c1.961-3.347,2.94-6.859,3.511-10.612c0.573,3.755,1.552,7.266,3.511,10.612c2.37,3.917,6.042,7.264,10.615,8.815
		c4.57,1.553,9.225,1.797,13.879,1.144c4.737-0.57,9.227-1.958,13.553-4.49c1.388-0.979,2.776-1.958,3.92-3.346l0,0
		c4.734-3.917,8.406-7.676,12.573-10.777c4.081-3.102,8.409-5.472,14.287-6.448C375.56,496.096,372.213,495.522,369.111,496.096z"/>
	<path fill="#472941" d="M385.356,488.501c-2.775-1.797-6.042-2.776-9.227-3.102h-0.164c-0.406,0-0.57,0-0.979,0
		c-2.123,0.406-3.511,2.122-3.347,4.328c0.164,2.123,2.123,3.511,4.326,3.347c2.122-0.406,4.489-0.167,6.695,0.57
		c2.123,0.818,3.756,1.961,4.084,3.758c0.406,1.798-0.982,4.081-3.102,5.47c-2.123,1.552-4.737,2.37-7.431,2.776
		c2.776,0.164,5.714,0,8.409-0.982c2.776-0.979,5.714-3.347,6.042-7.264C390.829,493.563,388.133,490.215,385.356,488.501z"/>
	<path fill="#472941" d="M306,511.034l-3.919,17.228c-0.164,0.57-0.164,1.141,0,1.797c0.406,2.122,2.531,3.511,4.735,2.94
		c2.122-0.406,3.511-2.531,2.94-4.734L306,511.034z"/>
</g>
</svg>
